<?xml version="1.0" standalone="no"?>
<!DOCTYPE svg PUBLIC "-//W3C//DTD SVG 20010904//EN"
 "http://www.w3.org/TR/2001/REC-SVG-20010904/DTD/svg10.dtd">
<svg version="1.0" xmlns="http://www.w3.org/2000/svg"
 width="500.000000pt" height="500.000000pt" viewBox="0 0 500.000000 500.000000"
 preserveAspectRatio="xMidYMid meet">

<g transform="translate(0.000000,500.000000) scale(0.100000,-0.100000)"
fill="#000000" stroke="none">
<path d="M2338 3955 c-3 -3 -63 -12 -134 -20 -765 -89 -1375 -480 -1595 -1023
l-33 -83 152 -152 152 -152 -162 -162 c-119 -120 -159 -166 -151 -175 5 -7 18
-35 28 -63 100 -274 338 -552 631 -733 257 -159 595 -277 909 -317 72 -9 159
-21 195 -26 72 -12 287 -7 425 10 580 70 1031 271 1351 603 143 149 261 336
305 486 7 23 16 42 21 42 23 0 -5 32 -148 176 l-156 156 147 148 148 148 -23
64 c-45 124 -95 212 -196 343 -286 371 -821 645 -1379 705 -55 6 -122 15 -148
20 -50 10 -330 14 -339 5z m487 -90 c567 -73 1067 -332 1341 -694 64 -84 174
-287 174 -319 0 -9 -65 -82 -145 -162 -86 -87 -145 -154 -145 -166 0 -12 61
-81 154 -173 l155 -154 -25 -64 c-120 -320 -396 -597 -779 -783 -641 -312
-1468 -312 -2110 0 -343 166 -599 404 -736 684 -78 161 -85 136 95 316 94 93
156 162 156 174 0 12 -61 81 -151 172 -172 173 -163 146 -94 284 142 281 391
509 738 675 268 128 560 204 857 221 58 4 106 8 108 9 9 8 303 -7 407 -20z"/>
<path d="M1400 2500 l0 -680 440 0 440 0 0 80 0 80 -345 0 -345 0 0 600 0 600
-95 0 -95 0 0 -680z"/>
<path d="M2520 2500 l0 -680 90 0 90 0 0 315 0 315 355 0 355 0 0 -315 0 -315
95 0 95 0 0 680 0 680 -95 0 -95 0 0 -280 0 -280 -352 2 -353 3 -3 278 -2 277
-90 0 -90 0 0 -680z"/>
</g>
</svg>
